<?xml version="1.0" encoding="UTF-8" standalone="no"?>
<!DOCTYPE svg PUBLIC "-//W3C//DTD SVG 1.1//EN"
 "http://www.w3.org/Graphics/SVG/1.1/DTD/svg11.dtd">
<!-- Generated by graphviz version 2.40.1 (20161225.0304)
 -->
<!-- Title: dependencies Pages: 1 -->
<svg width="1201pt" height="211pt"
 viewBox="0.00 0.00 1201.00 211.00" xmlns="http://www.w3.org/2000/svg" xmlns:xlink="http://www.w3.org/1999/xlink">
<g id="graph0" class="graph" transform="scale(1 1) rotate(0) translate(4 207)">
<title>dependencies</title>
<polygon fill="#ffffff" stroke="transparent" points="-4,4 -4,-207 1197,-207 1197,4 -4,4"/>
<text text-anchor="start" x="575.5091" y="-42.4" font-family="sans-serif" font-weight="bold" font-size="14.00" fill="#000000">Legend</text>
<polygon fill="#ffffb3" stroke="transparent" points="362.5,-10 362.5,-30 382.5,-30 382.5,-10 362.5,-10"/>
<text text-anchor="start" x="386.129" y="-15.4" font-family="sans-serif" font-size="14.00" fill="#000000"> &#160;Declarations</text>
<polygon fill="#8dd3c7" stroke="transparent" points="475.5,-10 475.5,-30 495.5,-30 495.5,-10 475.5,-10"/>
<text text-anchor="start" x="499.2251" y="-15.4" font-family="sans-serif" font-size="14.00" fill="#000000"> &#160;Module</text>
<polygon fill="#80b1d3" stroke="transparent" points="561.5,-10 561.5,-30 581.5,-30 581.5,-10 561.5,-10"/>
<text text-anchor="start" x="585.2812" y="-15.4" font-family="sans-serif" font-size="14.00" fill="#000000"> &#160;Bootstrap</text>
<polygon fill="#fdb462" stroke="transparent" points="658.5,-10 658.5,-30 678.5,-30 678.5,-10 658.5,-10"/>
<text text-anchor="start" x="682.1732" y="-15.4" font-family="sans-serif" font-size="14.00" fill="#000000"> &#160;Providers</text>
<polygon fill="#fb8072" stroke="transparent" points="754.5,-10 754.5,-30 774.5,-30 774.5,-10 754.5,-10"/>
<text text-anchor="start" x="778.2258" y="-15.4" font-family="sans-serif" font-size="14.00" fill="#000000"> &#160;Exports</text>
<g id="clust1" class="cluster">
<title>cluster_ProductModule</title>
<polygon fill="none" stroke="#000000" stroke-dasharray="1,5" points="8,-70 8,-195 1185,-195 1185,-70 8,-70"/>
</g>
<g id="clust2" class="cluster">
<title>cluster_ProductModule_declarations</title>
<polygon fill="none" stroke="#000000" points="468,-78 468,-130 1177,-130 1177,-78 468,-78"/>
</g>
<g id="clust7" class="cluster">
<title>cluster_ProductModule_imports</title>
<polygon fill="none" stroke="#000000" points="180,-78 180,-130 460,-130 460,-78 180,-78"/>
</g>
<g id="clust10" class="cluster">
<title>cluster_ProductModule_providers</title>
<polygon fill="none" stroke="#000000" points="16,-78 16,-130 172,-130 172,-78 16,-78"/>
</g>
<!-- ProductCardComponent -->
<g id="node1" class="node">
<title>ProductCardComponent</title>
<polygon fill="#ffffb3" stroke="#000000" points="1169.0926,-122 1016.9074,-122 1016.9074,-86 1169.0926,-86 1169.0926,-122"/>
<text text-anchor="middle" x="1093" y="-99.8" font-family="Times,serif" font-size="14.00" fill="#000000">ProductCardComponent</text>
</g>
<!-- ProductModule -->
<g id="node5" class="node">
<title>ProductModule</title>
<polygon fill="#8dd3c7" stroke="#000000" points="600.5982,-187 597.5982,-191 576.5982,-191 573.5982,-187 497.4018,-187 497.4018,-151 600.5982,-151 600.5982,-187"/>
<text text-anchor="middle" x="549" y="-164.8" font-family="Times,serif" font-size="14.00" fill="#000000">ProductModule</text>
</g>
<!-- ProductCardComponent&#45;&gt;ProductModule -->
<g id="edge1" class="edge">
<title>ProductCardComponent&#45;&gt;ProductModule</title>
<path fill="none" stroke="#000000" d="M1093,-122.2921C1093,-144.2057 1093,-178 1093,-178 1093,-178 610.6686,-178 610.6686,-178"/>
<polygon fill="#000000" stroke="#000000" points="610.6687,-174.5001 600.6686,-178 610.6686,-181.5001 610.6687,-174.5001"/>
</g>
<!-- ProductDashboardComponent -->
<g id="node2" class="node">
<title>ProductDashboardComponent</title>
<polygon fill="#ffffb3" stroke="#000000" points="998.5224,-122 813.4776,-122 813.4776,-86 998.5224,-86 998.5224,-122"/>
<text text-anchor="middle" x="906" y="-99.8" font-family="Times,serif" font-size="14.00" fill="#000000">ProductDashboardComponent</text>
</g>
<!-- ProductDashboardComponent&#45;&gt;ProductModule -->
<g id="edge2" class="edge">
<title>ProductDashboardComponent&#45;&gt;ProductModule</title>
<path fill="none" stroke="#000000" d="M906,-122.1061C906,-141.3391 906,-169 906,-169 906,-169 610.9109,-169 610.9109,-169"/>
<polygon fill="#000000" stroke="#000000" points="610.9109,-165.5001 600.9109,-169 610.9108,-172.5001 610.9109,-165.5001"/>
</g>
<!-- ProductFormComponent -->
<g id="node3" class="node">
<title>ProductFormComponent</title>
<polygon fill="#ffffb3" stroke="#000000" points="795.7147,-122 640.2853,-122 640.2853,-86 795.7147,-86 795.7147,-122"/>
<text text-anchor="middle" x="718" y="-99.8" font-family="Times,serif" font-size="14.00" fill="#000000">ProductFormComponent</text>
</g>
<!-- ProductFormComponent&#45;&gt;ProductModule -->
<g id="edge3" class="edge">
<title>ProductFormComponent&#45;&gt;ProductModule</title>
<path fill="none" stroke="#000000" d="M718,-122.027C718,-138.3976 718,-160 718,-160 718,-160 610.6239,-160 610.6239,-160"/>
<polygon fill="#000000" stroke="#000000" points="610.6239,-156.5001 600.6239,-160 610.6238,-163.5001 610.6239,-156.5001"/>
</g>
<!-- ProductListComponent -->
<g id="node4" class="node">
<title>ProductListComponent</title>
<polygon fill="#ffffb3" stroke="#000000" points="622.1596,-122 475.8404,-122 475.8404,-86 622.1596,-86 622.1596,-122"/>
<text text-anchor="middle" x="549" y="-99.8" font-family="Times,serif" font-size="14.00" fill="#000000">ProductListComponent</text>
</g>
<!-- ProductListComponent&#45;&gt;ProductModule -->
<g id="edge4" class="edge">
<title>ProductListComponent&#45;&gt;ProductModule</title>
<path fill="none" stroke="#000000" d="M549,-122.1061C549,-122.1061 549,-140.991 549,-140.991"/>
<polygon fill="#000000" stroke="#000000" points="545.5001,-140.9909 549,-150.991 552.5001,-140.991 545.5001,-140.9909"/>
</g>
<!-- ProductRoutingModule -->
<g id="node6" class="node">
<title>ProductRoutingModule</title>
<polygon fill="#8dd3c7" stroke="#000000" points="452.2162,-122 449.2162,-126 428.2162,-126 425.2162,-122 303.7838,-122 303.7838,-86 452.2162,-86 452.2162,-122"/>
<text text-anchor="middle" x="378" y="-99.8" font-family="Times,serif" font-size="14.00" fill="#000000">ProductRoutingModule</text>
</g>
<!-- ProductRoutingModule&#45;&gt;ProductModule -->
<g id="edge5" class="edge">
<title>ProductRoutingModule&#45;&gt;ProductModule</title>
<path fill="none" stroke="#000000" d="M378,-122.027C378,-138.3976 378,-160 378,-160 378,-160 487.2303,-160 487.2303,-160"/>
<polygon fill="#000000" stroke="#000000" points="487.2303,-163.5001 497.2303,-160 487.2303,-156.5001 487.2303,-163.5001"/>
</g>
<!-- SharedModule -->
<g id="node7" class="node">
<title>SharedModule</title>
<polygon fill="#8dd3c7" stroke="#000000" points="286.4231,-122 283.4231,-126 262.4231,-126 259.4231,-122 187.5769,-122 187.5769,-86 286.4231,-86 286.4231,-122"/>
<text text-anchor="middle" x="237" y="-99.8" font-family="Times,serif" font-size="14.00" fill="#000000">SharedModule</text>
</g>
<!-- SharedModule&#45;&gt;ProductModule -->
<g id="edge6" class="edge">
<title>SharedModule&#45;&gt;ProductModule</title>
<path fill="none" stroke="#000000" d="M237,-122.1061C237,-141.3391 237,-169 237,-169 237,-169 487.1293,-169 487.1293,-169"/>
<polygon fill="#000000" stroke="#000000" points="487.1293,-172.5001 497.1293,-169 487.1293,-165.5001 487.1293,-172.5001"/>
</g>
<!-- ProductService -->
<g id="node8" class="node">
<title>ProductService</title>
<ellipse fill="#fdb462" stroke="#000000" cx="94" cy="-104" rx="70.0616" ry="18"/>
<text text-anchor="middle" x="94" y="-99.8" font-family="Times,serif" font-size="14.00" fill="#000000">ProductService</text>
</g>
<!-- ProductService&#45;&gt;ProductModule -->
<g id="edge7" class="edge">
<title>ProductService&#45;&gt;ProductModule</title>
<path fill="none" stroke="#000000" d="M94,-122.2921C94,-144.2057 94,-178 94,-178 94,-178 487.2487,-178 487.2487,-178"/>
<polygon fill="#000000" stroke="#000000" points="487.2487,-181.5001 497.2487,-178 487.2487,-174.5001 487.2487,-181.5001"/>
</g>
</g>
</svg>
